<?xml version="1.0" encoding="utf-8"?>
<!-- Generator: Adobe Illustrator 24.1.2, SVG Export Plug-In . SVG Version: 6.00 Build 0)  -->
<svg version="1.1" id="圖層_1" xmlns="http://www.w3.org/2000/svg" xmlns:xlink="http://www.w3.org/1999/xlink" x="0px" y="0px"
	 viewBox="0 0 70.53 30" style="enable-background:new 0 0 70.53 30;" xml:space="preserve">
<style type="text/css">
	.st0{fill:#9ED8F5;}
	.st1{fill:#3C3D3D;}
</style>
<path class="st0" d="M56.68,29.99H12.82c-6.86,0-12.47-5.61-12.47-12.47v-4.5c0-6.86,5.61-12.47,12.47-12.47h43.85
	c6.86,0,12.47,5.61,12.47,12.47v4.5C69.15,24.38,63.54,29.99,56.68,29.99z"/>
<path class="st1" d="M9.92,18.33c0.62,0.33,1.59,0.65,2.59,0.65c1.07,0,1.64-0.45,1.64-1.12c0-0.63-0.49-1.01-1.73-1.44
	c-1.72-0.61-2.85-1.55-2.85-3.06c0-1.76,1.48-3.1,3.91-3.1c1.18,0,2.03,0.23,2.64,0.52l-0.52,1.87c-0.41-0.2-1.15-0.49-2.16-0.49
	c-1.02,0-1.5,0.47-1.5,1c0,0.66,0.57,0.95,1.91,1.45c1.83,0.68,2.68,1.63,2.68,3.09c0,1.72-1.32,3.2-4.16,3.2
	c-1.17,0-2.34-0.32-2.92-0.64L9.92,18.33z"/>
<path class="st1" d="M25.11,18.33c0,0.98,0.03,1.78,0.06,2.4h-2.02l-0.11-1.06h-0.05c-0.29,0.46-0.99,1.23-2.34,1.23
	c-1.52,0-2.63-0.95-2.63-3.26v-4.41h2.33v4.03c0,1.1,0.35,1.75,1.17,1.75c0.63,0,1.01-0.44,1.16-0.82c0.06-0.14,0.09-0.31,0.09-0.49
	v-4.47h2.33V18.33z"/>
<path class="st1" d="M26.92,20.74c0.03-0.5,0.06-1.39,0.06-2.24V9.86h2.33v4.27h0.03c0.45-0.64,1.22-1.06,2.26-1.06
	c1.8,0,3.11,1.49,3.09,3.79c0,2.7-1.71,4.05-3.43,4.05c-0.88,0-1.72-0.32-2.24-1.21H29l-0.1,1.04H26.92z M29.31,17.56
	c0,0.15,0.01,0.29,0.04,0.41c0.15,0.62,0.69,1.11,1.37,1.11c0.99,0,1.61-0.77,1.61-2.12c0-1.17-0.52-2.09-1.6-2.09
	c-0.64,0-1.22,0.47-1.37,1.15c-0.03,0.13-0.05,0.28-0.05,0.43V17.56z"/>
<path class="st1" d="M36.14,15.63c0-0.93-0.03-1.72-0.06-2.4h1.97l0.1,1.02h0.05c0.32-0.48,0.99-1.18,2.26-1.18
	c0.97,0,1.73,0.5,2.05,1.29h0.03c0.28-0.4,0.61-0.7,0.97-0.91c0.41-0.24,0.86-0.37,1.42-0.37c1.43,0,2.52,1.01,2.52,3.25v4.41H45.2
	v-4.07c0-1.09-0.35-1.72-1.1-1.72c-0.54,0-0.92,0.37-1.07,0.81c-0.06,0.17-0.08,0.4-0.08,0.59v4.39h-2.27v-4.2
	c0-0.94-0.34-1.59-1.08-1.59c-0.6,0-0.95,0.46-1.09,0.84c-0.07,0.18-0.09,0.4-0.09,0.59v4.36h-2.27V15.63z"/>
<path class="st1" d="M51.72,11.16c0,0.65-0.48,1.16-1.25,1.16c-0.74,0-1.22-0.52-1.21-1.16c0-0.67,0.49-1.17,1.23-1.17
	C51.24,9.99,51.71,10.49,51.72,11.16z M49.32,20.74v-7.5h2.33v7.5H49.32z"/>
<path class="st1" d="M56.12,11.1v2.14h1.68v1.72h-1.68v2.72c0,0.9,0.22,1.32,0.92,1.32c0.3,0,0.53-0.03,0.69-0.07l0.02,1.77
	c-0.3,0.11-0.86,0.2-1.51,0.2c-0.75,0-1.38-0.26-1.76-0.65c-0.43-0.44-0.64-1.16-0.64-2.22v-3.07h-1v-1.72h1v-1.61L56.12,11.1z"/>
<g>
</g>
<g>
</g>
<g>
</g>
<g>
</g>
<g>
</g>
<g>
</g>
</svg>
